<?xml version="1.0" encoding="utf-8"?>
<!-- Generator: Adobe Illustrator 16.0.4, SVG Export Plug-In . SVG Version: 6.00 Build 0)  -->
<!DOCTYPE svg PUBLIC "-//W3C//DTD SVG 1.1//EN" "http://www.w3.org/Graphics/SVG/1.1/DTD/svg11.dtd">
<svg version="1.1" id="Layer_1" xmlns="http://www.w3.org/2000/svg" xmlns:xlink="http://www.w3.org/1999/xlink" x="0px" y="0px"
	 width="180px" height="90px" viewBox="0 0 180 90" enable-background="new 0 0 180 90" xml:space="preserve">
<circle fill="#231F20" cx="36" cy="72" r="9"/>
<path fill="none" stroke="#000000" stroke-width="2" stroke-miterlimit="10" d="M9,36v18h9V9C9,9,9,36,9,36z"/>
<path fill="#FFFFFF" stroke="#000000" stroke-width="2" stroke-miterlimit="10" d="M162,9H18v45H9v18h15.47
	c0-6.37,5.16-11.529,11.53-11.529S47.53,65.63,47.53,72h67.01c0-6.37,5.16-11.529,11.53-11.529c6.369,0,11.529,5.159,11.529,11.529
	h3.971c0-6.37,5.16-11.529,11.521-11.529c6.37,0,11.53,5.159,11.53,11.529H171L162,9z M153,45H45c-9,0-18,9-18,9V18h126V45z"/>
<circle fill="#231F20" cx="126" cy="72" r="9"/>
<circle fill="#231F20" cx="153" cy="72" r="9"/>
<line fill="none" stroke="#000000" stroke-width="2" stroke-miterlimit="10" x1="45" y1="45" x2="45" y2="18"/>
<line fill="none" stroke="#000000" stroke-width="2" stroke-miterlimit="10" x1="63" y1="45" x2="63" y2="18"/>
<line fill="none" stroke="#000000" stroke-width="2" stroke-miterlimit="10" x1="81" y1="45" x2="81" y2="18"/>
<line fill="none" stroke="#000000" stroke-width="2" stroke-miterlimit="10" x1="99" y1="45" x2="99" y2="18"/>
<line fill="none" stroke="#000000" stroke-width="2" stroke-miterlimit="10" x1="117" y1="45" x2="117" y2="18"/>
<line fill="none" stroke="#000000" stroke-width="2" stroke-miterlimit="10" x1="135" y1="45" x2="135" y2="18"/>
</svg>
