<?xml version="1.0" encoding="utf-8"?>
<!-- Generator: Adobe Illustrator 16.0.4, SVG Export Plug-In . SVG Version: 6.00 Build 0)  -->
<!DOCTYPE svg PUBLIC "-//W3C//DTD SVG 1.1//EN" "http://www.w3.org/Graphics/SVG/1.1/DTD/svg11.dtd">
<svg version="1.1" id="Layer_1" xmlns="http://www.w3.org/2000/svg" xmlns:xlink="http://www.w3.org/1999/xlink" x="0px" y="0px"
	 width="216px" height="216px" viewBox="0 0 216 216" enable-background="new 0 0 216 216" xml:space="preserve">
<circle fill-rule="evenodd" clip-rule="evenodd" fill="#00A651" cx="108" cy="108" r="108"/>
<g id="_x34_RxUml_1_">
	<g>
		<path fill-rule="evenodd" clip-rule="evenodd" fill="#27AAE1" d="M122.604,8.438c7.188,3.831,13.866,0.001,19.9-0.216
			c2.144,1.493,4.099,3.522,6.475,4.355c3.699,1.296,6.276,3.619,6.656,7.204c0.424,3.988,1.44,7.871,1.744,11.925
			c0.462,6.15,2.638,12.461,10.365,15.417c1.024-8.967,7.393-11.116,15.791-10.941c-0.593-2.217-1.065-3.984-1.54-5.75
			c0.312-0.284,0.623-0.567,0.936-0.851c2.104,2.281,4.194,4.574,6.314,6.839c8.206,8.765,13.59,19.261,18.297,30.12
			c1.767,4.077,1.252,8.083-2.322,10.763c1.01,2.444,1.874,4.533,2.943,7.123c-1.898,0-3.231,0-5.206,0
			c0.163,2.833,0.028,5.59,0.588,8.198c0.301,1.403,1.791,2.553,2.745,3.817c1.14-1.182,2.687-2.183,3.321-3.592
			c0.874-1.936,1.057-4.183,2.454-6.041c1.117,2.941,2.235,5.883,3.434,9.039c-4.171,1.238-9.111,0.612-10.94,4.996
			c-3.772,9.042-9.596,17.677-8.678,27.938c0.404,4.524,3.188,8.836,5.063,13.691c3.703-2.104,6.071-3.451,8.799-5.002
			c1.27,4.566-0.402,8.828-2.046,12.649c-11.529,26.809-30.76,46.143-57.776,57.406c-7.033,2.933-14.535,4.746-22.546,7.306
			c1.674-6.428,5.472-8.558,9.748-11.085c5.248-3.105,9.453-7.99,14.03-12.194c2.204-2.021,3.862-5.16,6.413-6.17
			c4.777-1.892,6.531-5.626,8.369-9.715c1.243-2.767,2.905-5.343,4.253-8.066c0.965-1.952,2.97-4.887,2.304-5.829
			c-1.315-1.863-4.042-3.015-6.406-3.789c-3.234-1.062-6.73-1.315-9.995-2.306c-1.124-0.341-2.311-1.701-2.742-2.865
			c-1.579-4.263-3.961-6.685-8.979-7.003c-3.928-0.25-6.822-3.146-8.297-7.373c-3.019,0.188-6.231,0.396-9.446,0.587
			c-2.171,0.128-2.323-2.878-5.841-2.429c-4.652,0.596-7.859,1.924-10.754,5.129c-2.418-0.791-4.836-1.576-6.587-2.146
			c0.598-2.519,1.058-5.152,1.905-7.656c0.3-0.89,1.433-1.683,2.372-2.134c1.566-0.753,3.282-1.196,6.236-2.222
			c-2.496-1.533-3.871-2.379-5.58-3.429c2.448-0.159,4.588-0.297,6.541-0.422c1.107-8.751-6.662-4.457-8.718-6.092
			c0-4.62-0.274-8.281,0.103-11.878c0.229-2.179,0.873-4.921,2.367-6.241c3.401-3.006,6.767-5.554,8.744-10.086
			c1.42-3.251,5.162-5.497,7.888-8.171c0.498-0.487,1.396-0.77,1.591-1.328c1.786-5.145,3.733-5.876,8.003-2.829
			c3.039-1.499,6.082-3,9.516-4.695c-2.942-1.949-8.321,0.056-6.488-5.88c0.146-0.473-1.911-1.625-2.945-2.462
			c0.218-0.371,0.435-0.742,0.652-1.114c1.681,0.946,3.362,1.892,5.101,2.87c2.311-1.12,4.904-2.379,8.475-4.111
			c-1.656,2.873-2.845,4.936-4.193,7.275c3.165,1.062,6.03,2.024,10.42,3.498c-1.501-3.276-2.523-5.51-3.547-7.744
			c-0.565,0.239-1.13,0.479-1.695,0.718c2.567-5.621,0.22-9.055-3.727-12.875c-2.597-2.513-3.112-7.166-4.648-11.083
			c-1.438,1.313-2.743,2.505-4.768,4.355c-1.867-6.107-3.766-12.09-12.138-11.212c0.609,3.877-3.933,6.908-1.724,11.402
			c0.306,0.622-0.283,2.386-0.865,2.624c-3.762,1.532-5.65,4.042-5.283,8.191c0.022,0.244-1.274,0.828-1.952,0.819
			c-0.369-0.004-1.041-0.928-1.032-1.43c0.032-2.032,0.276-4.06,0.416-5.768c-4.126-2.288-8.312-3.954-11.604-6.69
			c-1.868-1.552-4.029-4.976-0.851-7.542c3.736-3.018,7.897-5.51,11.874-8.231c0.109,0.61,0.219,1.221,0.328,1.832
			c2.879,0.673,5.76,1.346,10.021,2.342c-2.127-2.686-3.359-4.242-3.976-5.02c2.596-2.505,4.988-4.814,8.185-7.898
			c4.45,0.276,4.697,0.61,1.829,5.189c1.693,0,3.193,0,4.693,0c0.165,0.434,0.329,0.867,0.494,1.301
			c-2.854,1.306-5.709,2.612-8.137,3.724c4.244,2.912,8.421,5.779,12.62,8.662c1.995-4.396,2.279-6.281,0.875-9.055
			c1.191,0.728,1.81,0.978,2.252,1.409c0.452,0.441,0.732,1.058,1.32,1.953c1.348-0.962,2.572-1.838,4.143-2.959
			c-1.613-1.301-2.848-2.307-4.094-3.298c-0.511-0.406-1.558-0.914-1.495-1.151c1.692-6.513-4.979-7.922-7.772-11.065
			c-2.42-2.721-8.297-2.381-12.646-3.394l0.097,0.106c0.038-0.793,0.077-1.585,0.117-2.378L122.604,8.438z M205.659,74.162
			c0.55-0.328,1.1-0.655,1.65-0.983c-1.85-4.071-3.699-8.144-6.134-13.505c-0.471,4.788-0.781,7.958-1.191,12.126
			c2.006-1.196,2.762-1.646,2.96-1.764C203.865,71.437,204.762,72.799,205.659,74.162z M113.965,127.35
			c4.111-0.257,7.796-0.484,11.479-0.715c0.109-0.561,0.219-1.121,0.328-1.683c-2.988-1.225-5.976-2.446-8.554-3.503
			C116.361,123.003,115.457,124.641,113.965,127.35z M185.828,41.83c0.69,3.614,1.776,6.923,5.703,5.896
			c0.352-0.541,0.703-1.083,1.055-1.625C190.333,44.677,188.08,43.253,185.828,41.83z"/>
		<path fill-rule="evenodd" clip-rule="evenodd" fill="#27AAE1" d="M29.608,34.113c-1.119,3.604-2.212,7.126-3.602,11.603
			c2.328-2.025,4.208-3.907,6.335-5.45c2.674-1.939,5.375-4.191,8.425-5.087c1.202-0.353,4.364,2.298,4.899,4.095
			c1.11,3.732,1.623,7.844,1.372,11.734c-0.501,7.754,1.189,15.448-2.49,23.315c-3.294,7.044-3.314,15.147,3.008,21.948
			c1.924,2.07,2.002,5.777,3.183,8.629c1.541,3.719,3.288,7.357,5.075,10.966c0.267,0.537,1.231,0.733,2.703,1.544
			c-1.384-4.016-2.466-7.151-3.547-10.287c1.503,5.25,9.251,7.658,6.81,14.835c-0.221,0.651,1.771,2.058,2.743,3.105
			c1.164,1.255,2.337,2.503,4.021,4.306c-2.859,0.136-4.559,0.217-6.988,0.331c2.302,1.793,3.836,2.908,5.281,4.131
			c4.358,3.684,8.537,7.603,13.11,10.99c1.312,0.972,3.728,0.457,5.636,0.631c2.273,0.205,4.545,0.555,6.82,0.58
			c1.398,0.016,2.803-0.46,4.205-0.713c-0.867-0.995-1.719-2.005-2.609-2.978c-0.292-0.319-0.68-0.55-1.521-1.211
			c5.165-0.479,8.069,8.325,13.541,2.499c3.214,3.838,3.186,7.209-0.12,10.58c-4.864,4.966-4.907,9.118-0.545,14.565
			c1.943,2.426,3.285,5.32,5.087,7.87c0.921,1.304,2.079,2.613,3.431,3.414c6.854,4.058,7.529,5.436,6.434,13.586
			c-0.819,6.101-1.593,12.208-2.153,18.337c-0.09,0.976,1.048,2.066,1.595,3.065c-44.201,6.358-90.361-19.554-109.871-61.825
			C-9.597,111.035,1.159,62.595,29.608,34.113z"/>
		<path fill-rule="evenodd" clip-rule="evenodd" fill="#27AAE1" d="M122.744,8.303c-4.709,0-9.418,0-14.126,0
			c-0.131,0.499-0.262,0.997-0.394,1.496c0.936,1.178,1.872,2.357,2.96,3.731c-2.022,4.745-7.948,6.885-12.272,4.026
			c2.143-0.67,4.311-1.349,6.479-2.027c-0.402-0.25-0.804-0.5-1.207-0.751c0.806-2.412,1.611-4.824,2.438-7.298
			c-0.591,0.061-1.806,0.263-3.024,0.292c-1.683,0.039-3.75,0.568-4.986-0.193c-5.667-3.486-8.396-3.21-14.156,2.492
			c1.823,0,3.271,0,4.721,0c-0.605,1.75-1.188,3.434-1.959,5.663c-6.073-3.87-12.47-3.614-19.298-1.637
			c-2.604,0.754-5.895-0.851-8.872-1.38c-0.113-0.44-0.226-0.881-0.338-1.321c7.146-2.578,14.18-5.536,21.46-7.653
			c13.937-4.053,28.237-4.559,42.573-2.73c2.4,0.306,4.596,2.209,7.091,3.478c-0.684,0.768-0.764,0.937-0.846,0.938
			c-1.308,0.017-2.616,0.012-4.047,0.012c0-0.906,0-1.769,0-2.867c-5.005,0.623-1.032,4.221-2.344,5.871
			C122.604,8.438,122.744,8.303,122.744,8.303z M111.959,6.113c-1.205-2.403-1.709-3.406-2.252-4.489
			c-1.131,0.986-1.965,1.715-1.702,1.485c-3.818-0.569-6.578-0.98-9.336-1.391c-0.12,0.932-0.239,1.863-0.358,2.795
			C102.429,4.996,106.547,5.479,111.959,6.113z"/>
		<path fill-rule="evenodd" clip-rule="evenodd" fill="#27AAE1" d="M122.53,10.575c-2.505,2.497-5.659,4.98,0.998,7.754
			c-1.487,1.315-2.4,2.123-4.349,3.845c-1.478-3.818-2.593-6.698-3.951-10.209c3.332-0.58,5.363-0.935,7.396-1.287
			C122.627,10.681,122.53,10.575,122.53,10.575z"/>
		<path fill-rule="evenodd" clip-rule="evenodd" fill="#27AAE1" d="M205.659,74.162c-0.897-1.363-1.794-2.726-2.715-4.125
			c-0.198,0.119-0.954,0.568-2.96,1.764c0.41-4.168,0.721-7.338,1.191-12.126c2.435,5.361,4.284,9.434,6.134,13.505
			C206.759,73.507,206.209,73.834,205.659,74.162z"/>
		<path fill-rule="evenodd" clip-rule="evenodd" fill="#27AAE1" d="M113.965,127.35c1.492-2.709,2.396-4.347,3.253-5.9
			c2.578,1.057,5.565,2.278,8.554,3.503c-0.109,0.562-0.219,1.122-0.328,1.683C121.761,126.865,118.076,127.093,113.965,127.35z"/>
		<path fill-rule="evenodd" clip-rule="evenodd" fill="#27AAE1" d="M185.828,41.83c2.252,1.423,4.505,2.847,6.758,4.27
			c-0.352,0.542-0.703,1.084-1.055,1.625C187.604,48.753,186.519,45.444,185.828,41.83z"/>
		<path fill-rule="evenodd" clip-rule="evenodd" fill="#27AAE1" d="M111.959,6.113c-5.412-0.634-9.53-1.117-13.648-1.6
			c0.119-0.932,0.238-1.863,0.358-2.795c2.759,0.411,5.518,0.822,9.336,1.391c-0.264,0.23,0.571-0.499,1.702-1.485
			C110.25,2.707,110.754,3.709,111.959,6.113z"/>
	</g>
</g>
</svg>
