<?xml version="1.0" encoding="utf-8"?>
<!-- Generator: Adobe Illustrator 16.0.4, SVG Export Plug-In . SVG Version: 6.00 Build 0)  -->
<!DOCTYPE svg PUBLIC "-//W3C//DTD SVG 1.1//EN" "http://www.w3.org/Graphics/SVG/1.1/DTD/svg11.dtd">
<svg version="1.1" id="Layer_1" xmlns="http://www.w3.org/2000/svg" xmlns:xlink="http://www.w3.org/1999/xlink" x="0px" y="0px"
	 width="153.25px" height="48.5px" viewBox="0 0 153.25 48.5" enable-background="new 0 0 153.25 48.5" xml:space="preserve">
<path fill="#FFFFFF" d="M10.324,37.09c-0.909-0.027-0.852-0.078-1.306-0.254c-0.929-0.359-1.373-0.707-1.669-0.98
	c-0.376-0.35-0.229-0.666,0.032-0.869c0.704-0.547,2.473-1.412,3.965-1.521c0.322-0.021,0.929,0.051,1.388,0.201
	c0.324,0.105,0.653-0.072,0.962-0.244c0.362-0.199,0.461-0.24,0.808-0.289c1.068-0.146,1.213-0.115,2.218-0.404
	c2.682-0.771,4.534-1.926,7.694-3.326c1.502-0.666,1.93-0.811,3.143-0.578c0.756,0.143,3.021,0.984,3.488,1.135
	c0.596-0.201,2.491-1.557,2.946-1.863c0.467-0.312,0.787-0.211,1.168-0.104c0.776,0.217,1.911,0.703,2.236,0.82
	c0.157,0.057,1.643,0.541,2.549,0.664c0.445,0.059,0.648,0.049,0.928-0.287c0.755-0.904,2.261-3.889,2.533-4.367
	c0.879-1.555,2.581-4.258,4.242-5.334c0.478-0.309,1.163-0.723,1.555-0.971c0.451-0.287,0.424-0.488-0.283-0.434
	c-0.296,0.023-1.694,0.195-2.222,0.416c-4.291,1.795-9.935,3.508-15.148,4.057c-3.083,0.322-8.285,0.602-10.516,0.143
	c-2.084-0.428-4.686-1.693-5.643-2.898c-0.226-0.285-0.072-0.52,0.343-0.41c1.018,0.27,2.921,0.814,4.973,1.166
	c6.273,1.08,13.916-0.76,18.607-2.291c2.835-0.926,4.803-1.693,6.221-2.15c1.208-0.391,3.554-0.949,4.505-0.975
	c2.578-0.068,4.877-0.959,7.645-2.395c7.339-3.808,18.057-2.868,21.75-2.963c1.133-0.029,3.81-0.282,5.289-0.698
	c9.565-2.688,13.51-0.592,16.217-0.616c2.254-0.02,3.449-0.018,6.019-0.207c2.238-0.165,4.926,0.195,6.715,0.352
	c0.941-0.918,2.206-0.263,2.623-0.217c0.232,0.025,2.484-0.175,2.787-0.153c0.881,0.063,3.785,1.378,4.558,1.773
	c1.414,0.727,2.352,0.674,2.694,0.799c0.394,0.145,0.329,0.23,0.665,0.992c0.432,0.971,1.039,1.266,1.516,1.535
	c2.141,1.211,5.146,2.219,6.322,2.725c0.868,0.373,1.455,0.764,1.752,0.934c0.344,0.195,0.654,0.373,0.893,0.553
	c0.647,0.49,0.662,1.141-0.084,1.801c-0.225,0.197-1.459,0.514-2.131,0.971c-0.344,0.234-1.479,0.469-2.771,0.4
	c-0.923-0.049-4.093-0.426-5.541-0.525c-2.02-0.137-5.27-0.238-6.084-0.305c-1.023-0.082-1.244-0.098-2.287-0.875
	c-2.167-1.615-5.258-1.693-7.947-0.973c-0.393,0.105-1.211,0.379-1.687,0.645c-0.183,0.102-0.525,0.227-0.341,0.76
	c0.466,1.33,0.902,0.9,1.48,3.078c0.442,1.664,0.291,2.676,0.788,3.762c0.589,1.287,2.666,1.153,3.989,1.213
	c1.475,0.063,8.938,1.396,10.883,1.865c1.251,0.301,2.205,1.176,2.96,1.428c0.284,0.019,0.702,0.029,1.076,0.045
	c1.683,0.064,2.805,0.599,4.483,1.464c1.186,0.61,4.33,1.659,6.36,2.469c1.447,0.574,2.526,0.397,3.211,0.373
	c0.429-0.019,0.685,0.05,0.966,0.218c0.428,0.26,1.276,1.187,1.534,1.551c0.291,0.41,0.285,0.662-0.173,0.892
	c-0.628,0.315-1.908,0.596-2.314,0.696c-1.422,0.354-2.306,0.511-3.813-0.401c-0.543-0.328-0.672-0.237-1.222-0.332
	c-0.354-0.062-0.62-0.233-0.855-0.377c-0.678-0.414-1.375-0.929-1.953-1.254c-0.354-0.199-3.615-1.625-3.979-1.429
	c-0.027,0.224,0.504,0.877,1.958,1.513c1.178,0.514,2.249,0.522,3.115,1.006c0.922,0.513,1.463,1.642,1.567,1.929
	c0.356,0.975-0.364,0.922-0.655,0.973c-0.229,0.041-2.615,0.063-2.914,0.027c-0.635-0.074-0.779-0.14-1.188-0.479
	c-0.247-0.207-0.364-0.266-0.691-0.34c-0.31-0.07-0.74-0.158-1.019-0.227c-0.457-0.115-0.75-0.396-0.883-0.52
	c-0.313-0.285-2.472-3.174-2.953-3.602c-0.354-0.316-0.66-0.389-1.22-0.449c-1.575-0.176-4.618-0.188-6.951,0.146
	c-5.301,0.765-12.881,0.881-16.413-0.215c-0.208-0.065-0.366-0.099-0.562-0.379c-0.177-0.259-0.412-0.644-0.541-0.886
	c-0.056-0.104-0.103-0.258-0.08-0.405c0.024-0.173,0.324-0.947-1.086-2.171c-0.271-0.233-0.422-0.118-0.467-0.1
	c-0.886,0.424-3.285,1.707-5.095,2.096c-2.133,0.459-5.21,0.754-9.206-0.846c-0.207-0.082-11.277-5.875-13.137-6.568
	c-2.218-0.826-4.872-2.123-8.617,0.236c-0.851,0.535-2.932,2.06-3.672,2.737c-3.246,2.979-5.441,5.528-8.99,7.197
	c-0.935,0.44-2.948,1.057-4.989,0.534c-1.181,0.705-2.247,1.203-3.268,1.524c-1.512,0.478-4.062,0.753-7.091-0.288
	c-2.303-0.791-5.904-2.574-6.519-2.9c-1.039,0.267-7.887,4.406-8.437,4.647c-1.073,0.472-2.244,0.441-2.897,0.582
	c-0.611,0.132-0.811,0.263-1.232,0.201c-0.727-0.104-1.149-0.414-1.408-0.539c-0.249-0.119-0.419-0.162-0.572-0.215
	c-0.532-0.185-0.961-0.892-0.166-1.356c0.381-0.226,0.937-0.33,1.377-0.513c0.303-0.123,0.878-0.604,2.007-0.84
	c0.437-0.091,0.64-0.123,1.025-0.433c0.382-0.308,0.666-0.377,1.118-0.474c2.873-0.604,4.347-1.782,4.132-2.004
	c-0.458-0.104-1.596,0.088-2.895,0.365c-1.768,0.379-6.539,2.601-6.947,2.767c-1.479,0.596-1.934,0.739-3.038,0.706L10.324,37.09
	L10.324,37.09z M131.348,33.777c0.377,0.004,1.118,0.16,1.369,0.229c0.926,0.262,4.156,1.744,4.527,2.021
	c1.013,0.752,1.301,0.977,2.57,1.135c0.443,0.057,0.69,0.256,1.19,0.537c1.063,0.596,2.157,0.219,2.521,0.15
	c-0.053,0.01,1.934-0.348,2.067-0.68c0.054-0.127-0.229-0.443-0.286-0.521c-0.346-0.436-0.442-0.559-0.867-0.729
	c-0.629-0.254-1.037-0.002-1.69,0.012c-0.304,0.006-2.744-0.516-3.401-0.93c-0.426-0.27-0.41-0.297-1.104-0.383
	c-0.166-0.02-3.41-1.215-3.705-1.363c-3.334-1.689-3.891-1.602-7.456-1.684c-0.399-0.01-5.067-0.568-5.677-0.68
	c-1.846-0.338-4.042-0.818-5.924-1.021c-0.986-0.105-4.006-0.289-5.453-1.059c-0.834-0.438-1.944-1.967-2.521-3.553
	c-0.159-0.445-0.808-3.43-2.396-5.501c-0.068-0.088-0.432-0.418-0.604-0.705c-0.12-0.201-0.106-0.338-0.03-0.389
	c0.094-0.061,0.308,0.025,0.492,0.141c0.219,0.135,1.115,1.266,1.172,1.342c1.379,1.9,1.771,4.021,2.047,4.812
	c0.121,0.345,0.653,1.438,0.793,1.662c0.738,1.194,1.328,1.729,2.58,1.912c1.438,0.209,3.873,0.43,4.482,0.543
	c0.441,0.08,0.867,0.182,1.286,0.271c0.543,0.114,4.897,0.69,8.646,1.228c0.215,0.028,0.689,0.034,0.688,0.008
	c0-0.174-0.386-0.287-0.854-0.412c-1.692-0.452-5.236-1.141-7.181-1.399c-2.009-0.271-5.636-0.655-6.305-0.767
	c-1.714-0.278-2.054-1.616-2.326-3.159c-0.157-0.888-0.315-2.423-1.062-3.563c-0.215-0.33-0.724-0.848-0.849-1.238
	c-0.103-0.318-0.121-0.635-0.55-0.346c-0.2,0.137-0.283,0.219-0.537,0.393c-0.241-0.182-0.145-0.311-0.046-0.49
	c0.153-0.289,0.346-0.549,0.593-0.764c0.648-0.561,1.112-0.861,1.803-1.133c2.888-1.135,4.67-0.949,7.195-0.578
	c0.084-0.381-0.613-1.242-1.126-1.654c-0.151-0.123-0.222-0.285-0.11-0.322c0.024-0.008,0.138-0.08,0.308-0.064
	c0.112,0.012,0.342,0.045,0.515,0.17c0.197,0.143,0.504,0.436,0.76,0.711c1.176,1.268,1.907,2.492,3.448,2.955
	c0.289,0.088,1.128,0.217,1.327,0.23c0.665,0.043,2.744,0.029,3.438,0.049c0.121,0.004,0.232,0.014,0.365,0.082
	c0.557,0.289,0.422,0.295,0.778,0.027c0.495-0.369,1.229-0.135,1.586-0.068c0.951,0.178,4.2,0.992,6.33,0.729
	c0.916-0.113,1.297-0.584,1.743-0.854c0.404-0.244,0.912-0.387,1.04-0.633c0.108-0.209,0.069-0.355-0.276-0.584
	c-0.533-0.354-1.619-0.877-1.675-0.902c-0.526-0.25-6.46-2.379-7.707-3.654c-0.062-0.062-0.285-0.344-0.463-0.406
	c-0.136-0.047-0.188,0.068-0.224,0.133c-0.225,0.387-0.291,0.742-0.528,0.844c-0.158,0.066-0.293-0.02-0.404-0.201
	c-0.122-0.197-0.112-0.258-0.407-0.314c-0.063-0.012-0.625-0.057-1.156-0.225c-0.115-0.037-0.116-0.139,0.024-0.221
	c0.151-0.088,0.425-0.088,0.704-0.129c0.609-0.094,1.092-0.441,1.299-0.602c0.215-0.166,0.204-0.412-0.041-0.609
	c-0.104-0.084-0.404-0.08-0.568-0.043c-0.154,0.035-0.461,0.145-0.729,0.207c-0.218,0.053-0.383,0.062-0.502,0.023
	c-0.004-0.133,0.006-0.189,0.035-0.244c0.068-0.129,0.229-0.209,0.306-0.285c0.08-0.076,0.048-0.123-0.021-0.172
	c-0.281-0.201-4.64-1.955-5.203-2.058c-0.286-0.053-1.292-0.119-1.377,0.295c-0.06,0.287-0.019,0.324-0.292,0.424
	c-0.192-0.013-1.125-0.396-1.715-0.665c-0.646-0.295-1.125-0.405-1.738,0.209c-0.525,0.527-1.348,1.457-1.479,1.537
	c-0.117,0.072-0.403,0.207-0.498,0.369c-0.022,0.043-0.024,0.133,0,0.148c0.062,0.041,0.418-0.012,0.492-0.025
	c0.244-0.045,0.581-0.211,0.734-0.305c0.244-0.15,1.021-0.875,1.486-1.143c0.207-0.119,0.394-0.131,0.623-0.088
	c0.223,0.041,0.826,0.289,0.979,0.41c0.188,0.152,0.332,0.418,0.146,0.648c-0.092,0.111-0.183,0.197-0.36,0.24
	c-0.185,0.047-0.351,0.053-0.501-0.189c-0.061-0.094-0.116-0.219-0.182-0.309c-0.106-0.154-0.178-0.16-0.287-0.127
	c-0.174,0.053-0.555,0.361-0.695,0.467c-0.156,0.115-0.115,0.273-0.102,0.324c0.187,0.607,0.963,0.697,1.593,0.693
	c0.007,0.039,0.046,0.262-0.041,0.377c-0.187,0.246-0.687,0.355-1.105,0.348c-0.512-0.008-0.929-0.211-1.256-0.598
	c-0.366-0.436-0.627-0.141-0.979-0.012c-0.69,0.254-1.469-0.027-2.047-0.178c-0.521-0.137-0.475-0.525-0.009-0.693
	c0.429-0.152,1.793-1.295,1.854-1.354c0.125-0.117,0.209-0.243-0.079-0.361c-0.459-0.187-2.417-0.389-2.943-0.433
	c-1.592-0.133-4.432,0.186-4.979,0.13c-1.923-0.194-1.325,0.518-2.888,0.233c-1.224-0.223-7.344-1.482-11.998-0.649
	c-0.576,0.103-6.931,1.933-11.965,1.894c-8.958-0.072-12.162-0.359-23.28,4.316c-2.069,0.871-3.176,0.658-5.608,1.045
	c-1.083,0.172-4,0.965-5.552,1.535c-3.237,1.191-8.487,3.09-14.19,3.666c-6.47,0.652-10.669-0.516-11.243-0.479
	c0.417,0.627,3.24,1.635,7.607,1.592c6.863-0.068,13.576-1.547,18.984-3.844c0.968-0.41,3.434-1.105,4.637-1.146
	c0.404-0.014,1.058,0.033,1.523,0.17c0.15,0.045,0.348,0.084,0.381,0.26c0.062,0.334-0.306,0.582-0.398,0.654
	c-1.261,0.978-2.583,1.635-3.553,2.525c-0.236,0.217-2.043,2.492-2.251,2.799c-2.261,3.33-2.061,3.895-3.708,6.037
	c-1.081,1.408-2.344,2.109-5.905,1.727c-1.854-0.201-5.957-1.229-7.678-1.885c-1.249-0.479-1.559-0.297-2.486,0.201
	c-1.958,1.049-5.116,2.535-7.047,3.24c-0.523,0.189-1.416,0.502-1.974,0.592c-0.575,0.096-1.498,0.16-1.725,0.229
	c-0.759,0.225-0.973,0.484-1.579,0.383c-0.722-0.125-0.745-0.279-1.397-0.201c-0.758,0.092-2.391,0.59-3.001,0.998
	c-0.274,0.184-0.296,0.354-0.001,0.59c0.581,0.463,1.243,0.805,2.042,0.805c0.225,0,1.02-0.09,1.937,0.074
	c0.455,0.082,0.759,0.115,1.619-0.135c0.319-0.094,5.774-2.371,6.224-2.57c2.28-1.006,4.663-1.711,7.05-1.365
	c1.821,0.266,4.009,1.387,4.722,1.715c1.139,0.523,3.894,1.902,5.968,2.438c2.956,0.756,5.52,0.836,8.559-1.014
	c1.21-0.732,2.117-1.617,3.473-2.572c1.581-1.113,6.219-4.201,6.418-4.367c2.42-2.029,4.751-3.896,7.521-4.729
	c2.454-0.738,5.445-1.037,8.365-0.152c3.149,0.955,13.412,6.521,14.066,6.801c3.024,1.281,7.205,2.062,10.487,0.934
	c0.405-0.143,2.362-0.865,2.963-1.252c0.752-0.486,0.674-0.727,0.383-1.111c-1.404-1.867-4.84-3.523-7.096-4.049
	c-0.142-0.033-0.246-0.146-0.215-0.232c0.036-0.107,0.161-0.199,0.317-0.244c0.119-0.033,0.256-0.035,0.385-0.018
	c1.021,0.139,4.283,1.182,6.162,2.977c1.521,1.451,3.414,2.857,3.823,5.109c0.16,0.887,1.388,1.34,2.918,1.5
	c4.15,0.43,7.373,0.289,11.562-0.301c4.285-0.604,9.17-0.172,10.086-0.162L131.348,33.777L131.348,33.777z M137.697,39.445
	c0.01-0.539-0.268-0.988-0.432-1.16c-0.615-0.646-1.303-0.789-2.201-0.982c-1.363-0.291-2.588-0.807-3.347-1.533
	c-0.354-0.34-0.811-0.916-0.979-1.047c-0.197-0.152-0.328-0.174-0.539-0.168c-0.084,0.004-0.593,0.021-0.677,0.027
	c-0.27,0.02-0.24,0.148-0.182,0.279c0.172,0.373,1.309,1.733,1.596,2.1c0.332,0.42,0.951,1.236,1.479,1.471
	c0.246,0.109,0.636,0.152,0.953,0.174c0.271,0.021,0.61,0.086,0.886,0.369c0.362,0.375,0.514,0.504,0.936,0.498L137.697,39.445
	L137.697,39.445z M28.881,34.082c0.284-0.172,0.177-0.346-0.06-0.455c-0.155-0.07-0.846-0.252-1.128-0.285
	c-0.209-0.027-0.435-0.043-0.714,0.102c-0.286,0.148-1.456,0.967-2.225,1.402c-2.258,1.287-3.171,1.191-3.791,1.396
	c-0.542,0.18-2.017,0.736-2.354,0.9c-0.363,0.174-0.475,0.434-0.982,0.523c-0.331,0.062-0.947,0.131-1.18,0.312
	c-0.195,0.149-0.333,0.338,0.044,0.556c0.196,0.11,0.816,0.391,1.02,0.457c0.255,0.086,0.729,0.045,1.108-0.035
	c0.381-0.08,0.765-0.22,1.171-0.293c1.19-0.222,1.263-0.054,1.94-0.315c0.882-0.347,0.893-0.488,1.456-0.938
	c0.533-0.426,1.271-0.688,1.853-1.014C26.526,35.566,27.908,34.674,28.881,34.082L28.881,34.082z M35.979,30.791
	c1.384,0.133,3.063,0.055,3.659-0.41c0.146-0.113,0.164-0.25-0.193-0.35c-0.914-0.26-2.956-0.742-3.28-0.867
	c-0.483-0.188-1.143-0.451-1.311-0.477c-0.267-0.039-0.448,0.023-0.642,0.146c-0.277,0.172-1.349,0.84-1.593,1.119
	c-0.146,0.168-0.118,0.241,0.024,0.307C33.177,30.5,35.449,30.74,35.979,30.791L35.979,30.791z M64.194,24.838
	c-0.483-0.072-3.313,0.895-6.717,3.982c-0.98,0.656-2.563,1.494-4.863,3.395c-0.837,0.551-3.198,2.01-3.801,2.629
	c-0.106,0.111-0.231,0.221,0.028,0.312c0.737,0.257,1.986-0.017,2.807-0.296c0.713-0.238,1.995-1.029,2.953-1.826
	c0.195-0.162,0.538-0.354,0.822-0.531c1.072-0.676,2.456-2.176,3.307-2.986C60.814,27.52,64.233,24.996,64.194,24.838L64.194,24.838
	z"/>
</svg>
