<?xml version="1.0" encoding="utf-8"?>
<!-- Generator: Adobe Illustrator 16.0.4, SVG Export Plug-In . SVG Version: 6.00 Build 0)  -->
<!DOCTYPE svg PUBLIC "-//W3C//DTD SVG 1.1//EN" "http://www.w3.org/Graphics/SVG/1.1/DTD/svg11.dtd">
<svg version="1.1" id="Layer_1" xmlns="http://www.w3.org/2000/svg" xmlns:xlink="http://www.w3.org/1999/xlink" x="0px" y="0px"
	 width="233.803px" height="144px" viewBox="0 0 233.803 144" enable-background="new 0 0 233.803 144" xml:space="preserve">
<polygon fill="#FFFFFF" points="227.659,26.83 227.659,117 209.209,117 209.209,114.37 224.149,114.37 224.149,29.45 209.209,29.45 
	209.209,26.83 "/>
<polygon fill="#FFFFFF" points="5.8,81.73 20.2,81.73 13,74.529 "/>
<path fill="#FFFFFF" d="M209.209,18"/>
<g>
	<path fill="#FFFFFF" d="M98.146,39.08c0,16.55-13.576,29.663-29.97,29.663c-16.391,0-29.967-13.113-29.967-29.663
		c0-16.469,13.576-29.811,29.967-29.811C84.57,9.269,98.146,22.611,98.146,39.08z M44.616,39.006
		c0,12.964,10.521,23.789,23.56,23.789c13.042,0,23.562-10.825,23.562-23.789c0-13.039-10.369-23.792-23.562-23.792
		C54.985,15.214,44.616,25.967,44.616,39.006z"/>
	<path fill="#FFFFFF" d="M107.253,7.819l44.833,46.97V10.259h6.407v60.085L113.658,23.45v44.303h-6.405V7.819z"/>
	<path fill="#FFFFFF" d="M170.502,10.259h29.815v5.948h-23.411v17.081h22.725v5.948h-22.725v22.569h23.411v5.948h-29.815V10.259z"/>
</g>
<g>
	<path fill="#FFFFFF" d="M59.706,119.921l18.148-44.927l18.148,44.927l14.729-42.026h6.768l-21.497,58.984l-18.148-45.15
		l-18.148,45.15L38.209,77.895h6.768L59.706,119.921z"/>
	<path fill="#FFFFFF" d="M125.052,118.062l-6.768,15.916h-6.844l25.886-58.759l25.215,58.759h-6.92l-6.619-15.916H125.052z
		 M137.178,89.796l-9.597,22.464h18.968L137.178,89.796z"/>
	<path fill="#FFFFFF" d="M156.168,77.895h7.215l14.281,24.996l14.281-24.996h7.217l-18.373,31.984v24.099h-6.25v-24.099
		L156.168,77.895z"/>
</g>
<circle fill="#FFFFFF" cx="13.001" cy="63.084" r="3.667"/>
<polygon fill="#FFFFFF" points="29.209,26.83 29.209,29.45 14.469,29.45 14.469,62.83 11.209,62.83 11.209,26.83 "/>
<polygon fill="#FFFFFF" points="29.209,114.37 29.209,117 11.209,117 11.209,80.83 14.469,80.83 14.469,114.37 "/>
</svg>
