<?xml version="1.0" encoding="utf-8"?>
<!-- Generator: Adobe Illustrator 16.0.4, SVG Export Plug-In . SVG Version: 6.00 Build 0)  -->
<!DOCTYPE svg PUBLIC "-//W3C//DTD SVG 1.1//EN" "http://www.w3.org/Graphics/SVG/1.1/DTD/svg11.dtd">
<svg version="1.1" id="Layer_1" xmlns="http://www.w3.org/2000/svg" xmlns:xlink="http://www.w3.org/1999/xlink" x="0px" y="0px"
	 width="233.803px" height="144px" viewBox="0 0 233.803 144" enable-background="new 0 0 233.803 144" xml:space="preserve">
<polygon fill="#FFFFFF" points="225.253,26.83 225.253,117 206.803,117 206.803,114.37 221.743,114.37 221.743,29.45 206.803,29.45 
	206.803,26.83 "/>
<polygon fill="#FFFFFF" points="3.394,62.1 17.794,62.1 10.594,69.301 "/>
<path fill="#FFFFFF" d="M206.803,18"/>
<circle fill="#FFFFFF" cx="10.595" cy="80.746" r="3.667"/>
<polygon fill="#FFFFFF" points="26.803,117 26.803,114.38 12.062,114.38 12.062,81 8.803,81 8.803,117 "/>
<polygon fill="#FFFFFF" points="26.803,29.46 26.803,26.83 8.803,26.83 8.803,63 12.062,63 12.062,29.46 "/>
<g>
	<path fill="#FFFFFF" d="M42.38,70.076h-6.577V11.032h9.711c5.088,0,10.336,0.156,14.643,3.131c4.384,3.054,6.653,8.222,6.653,13.47
		c0,4.776-1.958,9.631-5.636,12.686c-3.995,3.29-9.083,3.915-14.018,3.915H42.38V70.076z M42.38,38.125h4.384
		c7.285,0,13.47-2.19,13.47-10.648c0-9.631-7.75-10.336-15.427-10.336H42.38V38.125z"/>
	<path fill="#FFFFFF" d="M77.793,53.319l-7.125,16.757h-7.205L90.715,8.213l26.547,61.862h-7.285l-6.969-16.757H77.793z
		 M90.559,23.561L80.456,47.21h19.97L90.559,23.561z"/>
	<path fill="#FFFFFF" d="M150.492,22.544c-2.35-4.074-5.168-6.424-10.18-6.424c-5.248,0-9.788,3.759-9.788,9.163
		c0,5.091,5.245,7.441,9.239,9.242l3.915,1.722c7.674,3.367,14.175,7.205,14.175,16.601c0,10.336-8.303,18.246-18.559,18.246
		c-9.475,0-16.524-6.108-18.401-15.268l6.421-1.801c0.86,6.029,5.48,10.961,11.824,10.961c6.342,0,12.138-4.853,12.138-11.509
		c0-6.893-5.404-9.242-10.885-11.748l-3.603-1.565c-6.893-3.131-12.845-6.657-12.845-15.112c0-9.163,7.754-15.035,16.524-15.035
		c6.576,0,12.137,3.367,15.271,9.16L150.492,22.544z"/>
	<path fill="#FFFFFF" d="M183.17,70.076h-6.577V17.14h-14.251v-6.108h35.238v6.108h-14.41V70.076z"/>
</g>
<g>
	<path fill="#FFFFFF" d="M54.894,133.267h-6.029V84.744H35.803v-5.599h32.3v5.599H54.894V133.267z"/>
	<path fill="#FFFFFF" d="M80.321,133.267h-6.029V79.146h7.823c10.263,0,19.81,2.727,19.81,14.93c0,8.326-5.24,14.211-13.565,14.93
		l17.227,24.262h-7.394l-16.365-23.759h-1.508V133.267z M80.321,104.195h1.867c6.818,0,13.708-1.292,13.708-9.69
		c0-8.898-6.531-9.761-13.781-9.761h-1.794V104.195z"/>
	<path fill="#FFFFFF" d="M119.389,133.267h-6.029V79.146h6.029V133.267z"/>
	<path fill="#FFFFFF" d="M136.411,133.267h-6.028V79.146h8.898c4.667,0,9.477,0.144,13.425,2.869
		c4.019,2.8,6.102,7.537,6.102,12.347c0,4.378-1.797,8.829-5.169,11.628c-3.662,3.016-8.326,3.589-12.85,3.589h-4.378V133.267z
		 M136.411,103.982h4.021c6.674,0,12.344-2.011,12.344-9.764c0-8.828-7.104-9.475-14.142-9.475h-2.224V103.982z"/>
	<path fill="#FFFFFF" d="M191.055,89.698c-2.153-3.735-4.736-5.889-9.33-5.889c-4.811,0-8.972,3.445-8.972,8.398
		c0,4.667,4.807,6.82,8.469,8.472l3.589,1.578c7.033,3.086,12.992,6.604,12.992,15.217c0,9.477-7.609,16.724-17.011,16.724
		c-8.685,0-15.146-5.599-16.87-13.995l5.889-1.65c0.789,5.525,5.023,10.047,10.838,10.047c5.812,0,11.126-4.448,11.126-10.55
		c0-6.318-4.954-8.472-9.978-10.769l-3.302-1.435c-6.318-2.87-11.773-6.103-11.773-13.852c0-8.399,7.106-13.782,15.146-13.782
		c6.029,0,11.125,3.086,13.998,8.396L191.055,89.698z"/>
</g>
</svg>
