<?xml version="1.0" encoding="utf-8"?>
<!-- Generator: Adobe Illustrator 16.0.4, SVG Export Plug-In . SVG Version: 6.00 Build 0)  -->
<!DOCTYPE svg PUBLIC "-//W3C//DTD SVG 1.1//EN" "http://www.w3.org/Graphics/SVG/1.1/DTD/svg11.dtd">
<svg version="1.1" id="Layer_1" xmlns="http://www.w3.org/2000/svg" xmlns:xlink="http://www.w3.org/1999/xlink" x="0px" y="0px"
	 width="233.803px" height="144px" viewBox="0 0 233.803 144" enable-background="new 0 0 233.803 144" xml:space="preserve">
<polygon fill="#FFFFFF" points="229.962,62.1 215.562,62.1 222.762,69.301 "/>
<circle fill="#FFFFFF" cx="222.761" cy="80.746" r="3.667"/>
<polygon fill="#FFFFFF" points="206.553,117 206.553,114.38 221.293,114.38 221.293,81 224.553,81 224.553,117 "/>
<polygon fill="#FFFFFF" points="206.553,29.46 206.553,26.83 224.553,26.83 224.553,63 221.293,63 221.293,29.46 "/>
<polygon fill="#FFFFFF" points="3.394,81.73 17.794,81.73 10.594,74.529 "/>
<circle fill="#FFFFFF" cx="10.595" cy="63.084" r="3.667"/>
<polygon fill="#FFFFFF" points="26.803,26.83 26.803,29.45 12.062,29.45 12.062,62.83 8.803,62.83 8.803,26.83 "/>
<polygon fill="#FFFFFF" points="26.803,114.37 26.803,117 8.803,117 8.803,80.83 12.062,80.83 12.062,114.37 "/>
<g>
	<path fill="#FFFFFF" d="M40.146,50.243h-3.893V15.296h5.051c6.627,0,12.792,1.76,12.792,9.64c0,5.376-3.383,9.176-8.759,9.641
		L56.46,50.243h-4.774L41.119,34.902h-0.974V50.243z M40.146,31.471h1.206c4.402,0,8.852-0.834,8.852-6.257
		c0-5.748-4.217-6.302-8.899-6.302h-1.159V31.471z"/>
	<path fill="#FFFFFF" d="M96.056,32.815c0,10.059-8.251,18.03-18.217,18.03c-9.963,0-18.214-7.971-18.214-18.03
		c0-10.01,8.251-18.121,18.214-18.121C87.805,14.694,96.056,22.805,96.056,32.815z M63.52,32.77c0,7.88,6.395,14.459,14.32,14.459
		c7.927,0,14.322-6.58,14.322-14.459c0-7.925-6.303-14.462-14.322-14.462C69.822,18.308,63.52,24.844,63.52,32.77z"/>
	<path fill="#FFFFFF" d="M105.161,36.105c0,2.597-0.092,5.563,1.528,7.788c1.531,2.132,4.497,3.336,7.046,3.336
		c2.502,0,5.236-1.158,6.859-3.104c1.855-2.225,1.715-5.283,1.715-8.02V15.296h3.893v21.875c0,3.802-0.277,6.813-3.059,9.688
		c-2.41,2.595-5.886,3.985-9.409,3.985c-3.291,0-6.674-1.251-9.038-3.568c-3.059-2.919-3.429-6.118-3.429-10.104V15.296h3.893
		V36.105z"/>
	<path fill="#FFFFFF" d="M133.359,13.813l27.252,28.55V15.296h3.895v36.522l-27.254-28.504v26.929h-3.893V13.813z"/>
	<path fill="#FFFFFF" d="M171.803,15.296h6.581c5.236,0,9.501,0.694,13.626,4.217c3.985,3.43,5.793,8.112,5.793,13.301
		c0,5.098-1.853,9.595-5.7,13.025c-4.171,3.708-8.343,4.402-13.812,4.402h-6.487V15.296z M178.521,46.627
		c4.265,0,7.833-0.602,11.031-3.616c2.874-2.687,4.357-6.35,4.357-10.242c0-3.985-1.528-7.833-4.542-10.475
		c-3.198-2.829-6.722-3.383-10.847-3.383h-2.826v27.716H178.521z"/>
</g>
<g>
	<path fill="#FFFFFF" d="M61.228,130.987h-7.941V67.071H36.08v-7.375h42.547v7.375H61.228V130.987z"/>
	<path fill="#FFFFFF" d="M94.722,130.987h-7.941V59.696h10.305c13.519,0,26.095,3.588,26.095,19.663
		c0,10.971-6.902,18.724-17.869,19.67l22.692,31.958h-9.739L96.708,99.691h-1.986V130.987z M94.722,92.693h2.459
		c8.981,0,18.058-1.701,18.058-12.765c0-11.726-8.604-12.857-18.154-12.857h-2.363V92.693z"/>
	<path fill="#FFFFFF" d="M146.185,130.987h-7.941V59.696h7.941V130.987z"/>
	<path fill="#FFFFFF" d="M168.607,130.987h-7.941V59.696h11.722c6.147,0,12.483,0.185,17.684,3.78
		c5.293,3.688,8.038,9.924,8.038,16.268c0,5.759-2.367,11.625-6.81,15.312c-4.823,3.973-10.967,4.728-16.926,4.728h-5.767V130.987z
		 M168.607,92.408h5.297c8.792,0,16.26-2.641,16.26-12.856c0-11.634-9.357-12.48-18.627-12.48h-2.93V92.408z"/>
</g>
</svg>
